<svg id="Capa_1" enable-background="new 0 0 512 512" viewBox="0 0 512 512" xmlns="http://www.w3.org/2000/svg"><path d="m437 41h-362c-41.355 0-75 33.645-75 75v280c0 41.355 33.645 75 75 75h362c41.355 0 75-33.645 75-75v-280c0-41.355-33.645-75-75-75zm45 355c0 24.813-20.187 45-45 45h-362c-24.813 0-45-20.187-45-45v-280c0-24.813 20.187-45 45-45h362c24.813 0 45 20.187 45 45z"/><path d="m437 101h-362c-8.284 0-15 6.716-15 15v280c0 8.284 6.716 15 15 15h362c8.284 0 15-6.716 15-15v-280c0-8.284-6.716-15-15-15zm-347 30h159.787l-4.394 4.394c-2.813 2.812-4.393 6.627-4.393 10.606v35h-31v-5c0-8.284-6.716-15-15-15h-105zm212 80v90h-92v-90zm-212-20h90v50h-90zm0 80h90v50h-90zm151 88.787-21.213 21.213h-129.787v-30h105c8.284 0 15-6.716 15-15v-5h31zm181 21.213h-159.787l4.394-4.394c2.813-2.812 4.393-6.627 4.393-10.606v-35h31v5c0 8.284 6.716 15 15 15h105zm0-60h-90v-50h90zm0-80h-90v-50h90zm0-80h-105c-8.284 0-15 6.716-15 15v5h-31v-28.787l21.213-21.213h129.787z"/></svg>