<svg xmlns="http://www.w3.org/2000/svg" xmlns:xlink="http://www.w3.org/1999/xlink" viewBox="0 0 291.764 291.764">
  <defs>
    <rect id="rect-1" width="291.764" height="291.764" x="0" y="0"/>
    <mask id="mask-2" maskContentUnits="userSpaceOnUse" maskUnits="userSpaceOnUse">
      <rect width="291.764" height="291.764" x="0" y="0" fill="black"/>
      <use fill="white" xlink:href="#rect-1"/>
    </mask>
  </defs>
  <g>
    <use fill="none" xlink:href="#rect-1"/>
    <g mask="url(#mask-2)">
      <path fill="rgb(255,255,255)" fill-rule="evenodd" d="M18.235 41h255.294c10.066 0 18.235 8.169 18.235 18.244v173.235c0 10.066-8.169 18.235-18.235 18.235H18.235C8.16 250.715 0 242.545 0 232.48V59.244C0 49.169 8.169 41 18.235 41z"/>
      <g>
        <path fill="rgb(35,148,188)" fill-rule="evenodd" d="M71.99044655 159.01947332L90.44158177 109v.0080805h19.92601234l-29.60982472 73.54053613h-19.9260256L43.9359926 119.2617871c11.93677292 6.14366908 22.63282611 18.51178541 26.04447366 29.89338446l2.00998028 9.86430176zM117.96016303 109l-11.78228662 73.62213172h18.83253488L136.7854406 109h-18.82527757zm46.19015532 21.18610782c0 3.33764667 4.03444862 5.54012442 10.61555951 8.80342516 10.8577968 5.0828327 15.88274086 11.3008343 15.81836714 19.4191192-.16173033 14.79926004-13.0222501 24.36136735-32.78654537 24.36136735-8.44463169-.08887205-16.58034386-1.8268084-21.00421894-3.80142423l2.63359066-16.00795744 2.47987389 1.13437829c6.12569208 2.65975607 10.16093675 3.79413436 17.67302527 3.79413436 5.42166763 0 11.2319126-2.20247775 11.31239301-6.97583953 0-3.1089941-2.47987388-5.37773727-9.7650623-8.87696705-7.13149818-3.41117515-16.66079774-9.09752571-16.50713403-19.34477328.08127646-13.88627125 13.1767364-23.59542213 31.77431783-23.59542213 7.2851619 0 13.18318438 1.59085258 16.90300848 3.03466158l-2.56038083 15.40359534-1.7090345-.7659452c-3.41167408-1.43653255-7.90878555-2.88034155-14.02720707-2.7260215-7.4389052 0-10.77007235 3.1090075-10.85055275 6.14366908zm62.85740103-20.95825929h14.57035032l15.18590735 73.45329895h-17.43163712l-2.82429712-14.6667828h-22.11218448l-5.44337319 14.60779384h-19.76429527l27.9739868-67.47122637c1.9440012-4.6263182 5.35564875-5.92308362 9.84554271-5.92308362zm6.19250701 44.04466381l-5.73706167-23.8458773s-7.18231254 23.80881155-7.58429002 23.8458773h13.3213517z"/>
        <path fill="rgb(239,199,94)" fill-rule="evenodd" d="M63.77351417 118.49504797c-1.43788561-5.61364613-6.02350964-9.39970626-12.251397-9.4805014H22.30093409L22 110.3767526c22.79455048 5.64273238 41.92719977 23.00560736 48.13416657 39.33753639l-6.3606524-31.21924101z"/>
      </g>
    </g>
  </g>
</svg>
