<svg xmlns="http://www.w3.org/2000/svg" xmlns:xlink="http://www.w3.org/1999/xlink" viewBox="0 0 291.764 291.764">
  <defs>
    <rect id="rect-1" width="291.764" height="291.764" x="0" y="0"/>
    <mask id="mask-2" maskContentUnits="userSpaceOnUse" maskUnits="userSpaceOnUse">
      <rect width="291.764" height="291.764" x="0" y="0" fill="black"/>
      <use fill="white" xlink:href="#rect-1"/>
    </mask>
  </defs>
  <g>
    <use fill="none" xlink:href="#rect-1"/>
    <g mask="url(#mask-2)">
      <path fill="rgb(255,255,255)" fill-rule="evenodd" d="M18.235 41h255.294c10.066 0 18.235 8.169 18.235 18.244v173.235c0 10.066-8.169 18.235-18.235 18.235H18.235C8.16 250.715 0 242.545 0 232.48V59.244C0 49.169 8.169 41 18.235 41z"/>
      <g>
        <path fill="rgb(35,148,188)" fill-rule="evenodd" d="M67.5080179 161.15601L89.10292913 103v.00939224h23.32107332l-34.6548506 85.50321102H54.44804708l-19.77451371-73.58155493c13.97060962 7.143048 26.48908806 21.52305055 30.48202446 34.75607774l2.35246005 11.46888394zM121.31023555 103l-13.78980832 85.5980821h22.04128804L143.34303675 103h-22.03280119zm66.4844923 34.86786748c-7.7024435-3.79414686-12.42427444-6.35489082-12.42427444-10.23546522.09417259-3.52830233 3.9929364-7.143048 12.69927975-7.143048 7.1609197-.179417 12.42427443 1.49924743 16.41724226 3.16946833l2.00022441.89053887 2.99661184-17.9092694c-4.35362745-1.67866442-11.25654697-3.52830232-19.78300056-3.52830232-21.76631415 0-37.09302783 11.28851823-37.1881434 27.43362856-.17985832 11.91414546 10.97308623 18.52548858 19.31968151 22.49154181 8.5264536 4.06845074 11.42886142 6.70623 11.42886142 10.32095987-.09417258 5.5498466-6.89440123 8.11059056-13.23982912 8.11059056-8.79202908 0-13.514803-1.31888173-20.68424099-4.41131476l-2.90240782-1.31889754-3.08229757 18.61193194c5.17763755 2.29581651 14.6995356 4.3164437 24.5830048 4.4197899 23.13181661 0 38.1835564-11.11756057 38.37284456-28.32416743.07534435-9.43888033-5.80579006-16.66834006-18.51355666-22.57798517zm61.14302712-34.60295584h17.0529072l17.77331488 85.40176223h-20.4016918l-3.30550169-17.05256787h-25.87976379l-6.37082556 16.98400772h-23.1318166l32.74031192-78.4466222c2.27522974-5.37887311 6.26816613-6.88657988 11.52306544-6.88657988zm.5330055 23.48447819l6.71457436 27.72483529H240.5942401c.4704543-.04310309 8.87652038-27.7248353 8.87652038-27.7248353z"/>
        <path fill="rgb(239,199,94)" fill-rule="evenodd" d="M57.89104808 114.03958566c-1.68287816-6.52680508-7.04981866-10.92873493-14.3388377-11.02267283H9.35220841L9 104.60070578c26.6783747 6.56062272 49.07091923 26.74787678 56.33545318 45.73648327l-7.4444051-36.29760339z"/>
      </g>
    </g>
  </g>
</svg>
